<svg xmlns="http://www.w3.org/2000/svg" xmlns:xlink="http://www.w3.org/1999/xlink" width="840" height="581.04"><rect width="840" height="581.04" rx="5" ry="5" class="a"/><svg y="0%" x="0%"><circle cx="20" cy="20" r="6" fill="#ff5f58"/><circle cx="40" cy="20" r="6" fill="#ffbd2e"/><circle cx="60" cy="20" r="6" fill="#18c132"/></svg><svg height="521.04" viewBox="0 0 80 52.104" width="800" x="15" xmlns="http://www.w3.org/2000/svg" xmlns:xlink="http://www.w3.org/1999/xlink" y="50"><style>@keyframes s{0%{transform:translateX(0)}.3%{transform:translateX(-80px)}.4%{transform:translateX(-240px)}.5%{transform:translateX(-320px)}3.9%{transform:translateX(-560px)}4.1%{transform:translateX(-1040px)}11%{transform:translateX(-1120px)}12%{transform:translateX(-1200px)}13.5%{transform:translateX(-1280px)}14.6%{transform:translateX(-1360px)}16.3%{transform:translateX(-1440px)}18%{transform:translateX(-1520px)}18.1%{transform:translateX(-1680px)}18.2%{transform:translateX(-1920px)}22.9%{transform:translateX(-2000px)}29.4%{transform:translateX(-2080px)}31.7%{transform:translateX(-2800px)}76.4%{transform:translateX(-2880px)}78.9%{transform:translateX(-3040px)}80.1%{transform:translateX(-3440px)}94.2%{transform:translateX(-3520px)}95.2%{transform:translateX(-3600px)}96.2%{transform:translateX(-3680px)}97.9%{transform:translateX(-3760px)}99.6%{transform:translateX(-3840px)}99.7%{transform:translateX(-3920px)}99.8%{transform:translateX(-4000px)}99.9%{transform:translateX(-4080px)}to{transform:translateX(-4240px)}}.a{fill:#000}.f{fill:#80ff08;white-space:pre}.g{fill:#a8cc8c}.h,.i,.j{fill:#000;white-space:pre}.i,.j{fill:#c23621}.j{fill:#00afff}.k{fill:#b9c0cb}.l{fill:#6f7783}.m,.n{fill:#2ad625;white-space:pre}.n{fill:#e9ebeb}</style><g font-family="Monaco,Consolas,Menlo,'Bitstream Vera Sans Mono','Powerline Symbols',monospace" font-size="1.67"><defs><symbol id="1"><text y="1.67" class="f">Restored</text><text x="9.018" y="1.67" class="f">session:</text><text x="18.036" y="1.67" class="f">Thu</text><text x="22.044" y="1.67" class="f">Aug</text><text x="27.054" y="1.67" class="f">1</text><text x="29.058" y="1.67" class="f">18:13:12</text><text x="38.076" y="1.67" class="f">IST</text><text x="42.084" y="1.67" class="f">2024</text></symbol><symbol id="2"><text y="1.67" class="f">Setup</text><text x="6.012" y="1.67" class="f">dorky</text><text x="12.024" y="1.67" class="f">aws</text><text x="16.032" y="1.67" class="f">credentials</text><text x="28.056" y="1.67" class="f">on</text><text x="31.062" y="1.67" class="f">start.</text></symbol><symbol id="3"><text y="1.67" class="f">Setting</text><text x="8.016" y="1.67" class="f">up</text><text x="11.022" y="1.67" class="f">your</text><text x="16.032" y="1.67" class="f">scripts.</text></symbol><symbol id="4"><text y="1.67" class="f">Setting</text><text x="8.016" y="1.67" class="f">up</text><text x="11.022" y="1.67" class="f">rm</text><text x="14.028" y="1.67" class="f">as</text><text x="17.034" y="1.67" class="f">move_to_trash,</text><text x="32.064" y="1.67" class="f">use</text><text x="36.072" y="1.67" class="f">rm</text><text x="39.078" y="1.67" class="f">without</text><text x="47.094" y="1.67" class="f">flags.</text></symbol><symbol id="5"><text y="1.67" class="f">Setting</text><text x="8.016" y="1.67" class="f">up</text><text x="11.022" y="1.67" class="f">brew.</text></symbol><symbol id="6"><text y="1.67" class="f">Setting</text><text x="8.016" y="1.67" class="f">up</text><text x="11.022" y="1.67" class="f">nvm</text><text x="15.03" y="1.67" class="f">and</text><text x="19.038" y="1.67" class="f">Node</text><text x="24.048" y="1.67" class="f">environment.</text></symbol><symbol id="7"><text y="1.67" class="f">Setting</text><text x="8.016" y="1.67" class="f">up</text><text x="11.022" y="1.67" class="f">Flutter.</text></symbol><symbol id="8"><text y="1.67" class="f">Setting</text><text x="8.016" y="1.67" class="f">up</text><text x="11.022" y="1.67" class="f">Dorky</text><text x="17.034" y="1.67" class="f">AWS.</text></symbol><symbol id="9"><text y="1.67" class="f">Setting</text><text x="8.016" y="1.67" class="f">up</text><text x="11.022" y="1.67" class="f">Python</text><text x="18.036" y="1.67" class="f">alias</text></symbol><symbol id="10"><text y="1.67" class="f">Setting</text><text x="8.016" y="1.67" class="f">up</text><text x="11.022" y="1.67" class="f">Docker</text></symbol><symbol id="11"><text y="1.67" class="f">Setting</text><text x="8.016" y="1.67" class="f">up</text><text x="11.022" y="1.67" class="f">hub</text><text x="15.03" y="1.67" class="f">-&gt;</text><text x="18.036" y="1.67" class="f">git</text><text x="22.044" y="1.67" class="f">alias</text></symbol><symbol id="12"><text y="1.67" class="f">Scripts</text><text x="8.016" y="1.67" class="f">setup</text><text x="14.028" y="1.67" class="f">complete.</text></symbol><symbol id="13"><text x="2.004" y="1.67" class="f">_</text><text x="6.012" y="1.67" class="f">_</text><text x="13.026" y="1.67" class="f">_</text><text x="15.03" y="1.67" class="f">_</text><text x="25.05" y="1.67" class="f">_____</text><text x="31.062" y="1.67" class="f">_</text><text x="37.074" y="1.67" class="f">_</text><text x="49.098" y="1.67" class="f">_</text></symbol><symbol id="14"><text x="1.002" y="1.67" class="f">|</text><text x="3.006" y="1.67" class="f">|</text><text x="5.01" y="1.67" class="f">|</text><text x="7.014" y="1.67" class="f">|</text><text x="9.018" y="1.67" class="f">___|</text><text x="14.028" y="1.67" class="f">|</text><text x="16.032" y="1.67" class="f">|</text><text x="18.036" y="1.67" class="f">___</text><text x="24.048" y="1.67" class="f">|_</text><text x="29.058" y="1.67" class="f">_(_)___|</text><text x="38.076" y="1.67" class="f">|__</text><text x="43.086" y="1.67" class="f">_</text><text x="47.094" y="1.67" class="f">_|</text><text x="50.1" y="1.67" class="f">|</text></symbol><symbol id="15"><text x="1.002" y="1.67" class="f">|</text><text x="3.006" y="1.67" class="f">|_|</text><text x="7.014" y="1.67" class="f">|/</text><text x="10.02" y="1.67" class="f">_</text><text x="12.024" y="1.67" class="f">\</text><text x="14.028" y="1.67" class="f">|</text><text x="16.032" y="1.67" class="f">|/</text><text x="19.038" y="1.67" class="f">_</text><text x="21.042" y="1.67" class="f">\</text><text x="26.052" y="1.67" class="f">|</text><text x="28.056" y="1.67" class="f">|</text><text x="30.06" y="1.67" class="f">|</text><text x="32.064" y="1.67" class="f">/</text><text x="34.068" y="1.67" class="f">__|</text><text x="38.076" y="1.67" class="f">&apos;_</text><text x="41.082" y="1.67" class="f">\|</text><text x="44.088" y="1.67" class="f">|</text><text x="46.092" y="1.67" class="f">|</text><text x="48.096" y="1.67" class="f">|</text><text x="50.1" y="1.67" class="f">|</text></symbol><symbol id="16"><text x="1.002" y="1.67" class="f">|</text><text x="4.008" y="1.67" class="f">_</text><text x="7.014" y="1.67" class="f">|</text><text x="10.02" y="1.67" class="f">__/</text><text x="14.028" y="1.67" class="f">|</text><text x="16.032" y="1.67" class="f">|</text><text x="18.036" y="1.67" class="f">(_)</text><text x="22.044" y="1.67" class="f">|</text><text x="26.052" y="1.67" class="f">|</text><text x="28.056" y="1.67" class="f">|</text><text x="30.06" y="1.67" class="f">|</text><text x="32.064" y="1.67" class="f">\__</text><text x="36.072" y="1.67" class="f">\</text><text x="38.076" y="1.67" class="f">|</text><text x="40.08" y="1.67" class="f">|</text><text x="42.084" y="1.67" class="f">|</text><text x="44.088" y="1.67" class="f">|_|</text><text x="48.096" y="1.67" class="f">|_|</text></symbol><symbol id="17"><text x="1.002" y="1.67" class="f">|_|</text><text x="5.01" y="1.67" class="f">|_|\___|_|_|\___/</text><text x="26.052" y="1.67" class="f">|_|</text><text x="30.06" y="1.67" class="f">|_|___/_|</text><text x="40.08" y="1.67" class="f">|_|\__,_(_)</text></symbol><symbol id="18"><path class="g" d="M0 0h13v2.171H0z"/><text y="1.67" class="h">trishantpahwa</text><text x="14.028" y="1.67" class="f">^_^</text><text x="18.036" y="1.67" class="f">|</text><text x="20.04" y="1.67" class="f">~/Desktop/ExpressJS-Route-Coverage</text><text x="55.11" y="1.67" class="f">|</text><text x="57.114" y="1.67" class="i">&gt;</text></symbol><symbol id="19"><path class="g" d="M0 0h13v2.171H0z"/><text y="1.67" class="h">trishantpahwa</text><text x="14.028" y="1.67" class="f">^_^</text><text x="18.036" y="1.67" class="f">|</text><text x="20.04" y="1.67" class="f">~/Desktop/ExpressJS-Route-Coverage</text><text x="55.11" y="1.67" class="f">|</text><text x="57.114" y="1.67" class="i">&gt;</text><text x="59.118" y="1.67" class="f">clear</text><text x="71.142" y="1.67" class="j">18:13:34</text></symbol><symbol id="20"><path class="g" d="M0 0h13v2.171H0z"/><text y="1.67" class="h">trishantpahwa</text><text x="14.028" y="1.67" class="f">^_^</text><text x="18.036" y="1.67" class="f">|</text><text x="20.04" y="1.67" class="f">~/Desktop/ExpressJS-Route-Coverage</text><text x="55.11" y="1.67" class="f">|</text><text x="57.114" y="1.67" class="i">&gt;</text><path class="k" d="M59.118 0h21v2.171h-21z"/><text x="59.118" y="1.67" class="h">erc -p sample-app/sam</text></symbol><symbol id="21"><path class="g" d="M0 0h13v2.171H0z"/><text y="1.67" class="h">trishantpahwa</text><text x="14.028" y="1.67" class="f">^_^</text><text x="18.036" y="1.67" class="f">|</text><text x="20.04" y="1.67" class="f">~/Desktop/ExpressJS-Route-Coverage</text><text x="55.11" y="1.67" class="f">|</text><text x="57.114" y="1.67" class="i">&gt;</text><text x="59.118" y="1.67" class="f">erc</text><text x="63.126" y="1.67" class="f">-p</text><text x="66.132" y="1.67" class="f">sample-app/sam</text></symbol><symbol id="22"><text y="1.67" class="f">ple-app.js</text><text x="11.022" y="1.67" class="f">-v</text><text x="14.028" y="1.67" class="f">app</text><text x="18.036" y="1.67" class="f">-o</text><text x="21.042" y="1.67" class="f">print</text><text x="27.054" y="1.67" class="f">-j</text><text x="30.06" y="1.67" class="f">sample-app/package.json</text></symbol><symbol id="23"><path class="l" d="M0 0h3v2.171H0z"/><text y="1.67" class="m">GET</text><text x="8.016" y="1.67" class="n">/</text></symbol><symbol id="24"><path class="l" d="M0 0h3v2.171H0z"/><text y="1.67" class="m">GET</text><text x="8.016" y="1.67" class="n">/a</text></symbol><symbol id="25"><path class="l" d="M0 0h4v2.171H0z"/><text y="1.67" style="white-space:pre" fill="#5833ff">POST</text><text x="8.016" y="1.67" class="n">/a</text></symbol><symbol id="26"><path class="l" d="M0 0h3v2.171H0z"/><text y="1.67" class="m">GET</text><text x="8.016" y="1.67" class="n">/a/1/2</text></symbol><symbol id="27"><path class="l" d="M0 0h3v2.171H0z"/><text y="1.67" class="m">GET</text><text x="8.016" y="1.67" class="n">/b</text></symbol><symbol id="28"><path class="l" d="M0 0h3v2.171H0z"/><text y="1.67" class="m">GET</text><text x="8.016" y="1.67" class="n">/c</text></symbol><symbol id="29"><text y="1.67" class="f">ple-app.js</text><text x="11.022" y="1.67" class="f">-v</text><text x="14.028" y="1.67" class="f">app</text><text x="18.036" y="1.67" class="f">-o</text><text x="21.042" y="1.67" class="f">json</text><text x="26.052" y="1.67" class="f">-f</text><text x="29.058" y="1.67" class="f">sample-app/routes.json</text><text x="52.104" y="1.67" class="f">-j</text><text x="55.11" y="1.67" class="f">sample-app/package.json</text><text x="79.158" y="1.67" class="f">&amp;</text></symbol><symbol id="30"><text y="1.67" class="f">&amp;</text><text x="2.004" y="1.67" class="f">cat</text><text x="6.012" y="1.67" class="f">sample-app/routes.json</text></symbol><symbol id="31"><text y="1.67" class="f">{</text></symbol><symbol id="32"><text x="2.004" y="1.67" class="f">&quot;routes&quot;:</text><text x="12.024" y="1.67" class="f">[</text></symbol><symbol id="33"><text x="4.008" y="1.67" class="f">&quot;GET</text><text x="11.022" y="1.67" class="f">=&gt;</text><text x="16.032" y="1.67" class="f">/&quot;,</text></symbol><symbol id="34"><text x="4.008" y="1.67" class="f">&quot;GET</text><text x="11.022" y="1.67" class="f">=&gt;</text><text x="16.032" y="1.67" class="f">/a&quot;,</text></symbol><symbol id="35"><text x="4.008" y="1.67" class="f">&quot;POST</text><text x="12.024" y="1.67" class="f">=&gt;</text><text x="17.034" y="1.67" class="f">/a&quot;,</text></symbol><symbol id="36"><text x="4.008" y="1.67" class="f">&quot;GET</text><text x="11.022" y="1.67" class="f">=&gt;</text><text x="16.032" y="1.67" class="f">/a/1/2&quot;,</text></symbol><symbol id="37"><text x="4.008" y="1.67" class="f">&quot;GET</text><text x="11.022" y="1.67" class="f">=&gt;</text><text x="16.032" y="1.67" class="f">/b&quot;,</text></symbol><symbol id="38"><text x="4.008" y="1.67" class="f">&quot;GET</text><text x="11.022" y="1.67" class="f">=&gt;</text><text x="16.032" y="1.67" class="f">/c&quot;</text></symbol><symbol id="39"><text x="2.004" y="1.67" class="f">]</text></symbol><symbol id="40"><text y="1.67" class="f">}</text><path class="k" d="M1.002 0h1v2.171h-1z"/><text x="1.002" y="1.67" style="white-space:pre" font-weight="700">%</text></symbol><symbol id="41"><path class="g" d="M0 0h13v2.171H0z"/><text y="1.67" class="h">trishantpahwa</text><text x="14.028" y="1.67" class="f">^_^</text><text x="18.036" y="1.67" class="f">|</text><text x="20.04" y="1.67" class="f">~/Desktop/ExpressJS-Route-Coverage</text><text x="55.11" y="1.67" class="f">|</text><text x="57.114" y="1.67" class="i">&gt;</text><text x="59.118" y="1.67" class="f">exit</text><text x="71.142" y="1.67" class="j">18:13:40</text></symbol><symbol id="42"><text y="1.67" class="f">Saving</text><text x="7.014" y="1.67" class="f">session...</text></symbol><symbol id="43"><text y="1.67" class="f">...saving</text><text x="10.02" y="1.67" class="f">history...truncating</text><text x="31.062" y="1.67" class="f">history</text><text x="39.078" y="1.67" class="f">files...</text></symbol><symbol id="a"><path fill="transparent" d="M0 0h80v24H0z"/></symbol><symbol id="b"><path fill="#38fe27" d="M0 0h1.102v2.171H0z"/></symbol></defs><path class="a" d="M0 0h80v52.104H0z"/><g style="animation-duration:8.591103s;animation-iteration-count:infinite;animation-name:s;animation-timing-function:steps(1,end)"><svg width="4320"><svg><use xlink:href="#a"/><use xlink:href="#b" x="-.004"/></svg><svg x="80"><use xlink:href="#a"/><use xlink:href="#b" x="-.004" y="2.146"/><use xlink:href="#1"/></svg><svg x="160"><use xlink:href="#a"/><use xlink:href="#b" x="-.004" y="6.488"/><use xlink:href="#1"/><use xlink:href="#2" y="2.171"/><use xlink:href="#3" y="4.342"/></svg><svg x="240"><use xlink:href="#a"/><use xlink:href="#b" x="-.004" y="10.83"/><use xlink:href="#1"/><use xlink:href="#2" y="2.171"/><use xlink:href="#3" y="4.342"/><use xlink:href="#4" y="6.513"/><use xlink:href="#5" y="8.684"/></svg><svg x="320"><use xlink:href="#a"/><use xlink:href="#b" x="-.004" y="13.001"/><use xlink:href="#1"/><use xlink:href="#2" y="2.171"/><use xlink:href="#3" y="4.342"/><use xlink:href="#4" y="6.513"/><use xlink:href="#5" y="8.684"/><use xlink:href="#6" y="10.855"/></svg><svg x="400"><use xlink:href="#a"/><use xlink:href="#b" x="-.004" y="15.172"/><use xlink:href="#1"/><use xlink:href="#2" y="2.171"/><use xlink:href="#3" y="4.342"/><use xlink:href="#4" y="6.513"/><use xlink:href="#5" y="8.684"/><use xlink:href="#6" y="10.855"/><use xlink:href="#7" y="13.026"/></svg><svg x="480"><use xlink:href="#a"/><use xlink:href="#b" x="-.004" y="17.343"/><use xlink:href="#1"/><use xlink:href="#2" y="2.171"/><use xlink:href="#3" y="4.342"/><use xlink:href="#4" y="6.513"/><use xlink:href="#5" y="8.684"/><use xlink:href="#6" y="10.855"/><use xlink:href="#7" y="13.026"/><use xlink:href="#8" y="15.197"/></svg><svg x="560"><use xlink:href="#a"/><use xlink:href="#b" x="-.004" y="23.856"/><use xlink:href="#1"/><use xlink:href="#2" y="2.171"/><use xlink:href="#3" y="4.342"/><use xlink:href="#4" y="6.513"/><use xlink:href="#5" y="8.684"/><use xlink:href="#6" y="10.855"/><use xlink:href="#7" y="13.026"/><use xlink:href="#8" y="15.197"/><use xlink:href="#9" y="17.368"/><use xlink:href="#10" y="19.539"/><use xlink:href="#11" y="21.71"/></svg><svg x="640"><use xlink:href="#a"/><use xlink:href="#b" x="-.004" y="28.198"/><use xlink:href="#1"/><use xlink:href="#2" y="2.171"/><use xlink:href="#3" y="4.342"/><use xlink:href="#4" y="6.513"/><use xlink:href="#5" y="8.684"/><use xlink:href="#6" y="10.855"/><use xlink:href="#7" y="13.026"/><use xlink:href="#8" y="15.197"/><use xlink:href="#9" y="17.368"/><use xlink:href="#10" y="19.539"/><use xlink:href="#11" y="21.71"/><use xlink:href="#12" y="26.052"/></svg><svg x="720"><use xlink:href="#a"/><use xlink:href="#b" x="-.004" y="43.395"/><use xlink:href="#1"/><use xlink:href="#2" y="2.171"/><use xlink:href="#3" y="4.342"/><use xlink:href="#4" y="6.513"/><use xlink:href="#5" y="8.684"/><use xlink:href="#6" y="10.855"/><use xlink:href="#7" y="13.026"/><use xlink:href="#8" y="15.197"/><use xlink:href="#9" y="17.368"/><use xlink:href="#10" y="19.539"/><use xlink:href="#11" y="21.71"/><use xlink:href="#12" y="26.052"/><use xlink:href="#13" y="30.394"/><use xlink:href="#14" y="32.565"/><use xlink:href="#15" y="34.736"/><use xlink:href="#16" y="36.907"/><use xlink:href="#17" y="39.078"/></svg><svg x="800"><use xlink:href="#a"/><use xlink:href="#b" x="-.004" y="43.395"/><use xlink:href="#1"/><use xlink:href="#2" y="2.171"/><use xlink:href="#3" y="4.342"/><use xlink:href="#4" y="6.513"/><use xlink:href="#5" y="8.684"/><use xlink:href="#6" y="10.855"/><use xlink:href="#7" y="13.026"/><use xlink:href="#8" y="15.197"/><use xlink:href="#9" y="17.368"/><use xlink:href="#10" y="19.539"/><use xlink:href="#11" y="21.71"/><use xlink:href="#12" y="26.052"/><use xlink:href="#13" y="30.394"/><use xlink:href="#14" y="32.565"/><use xlink:href="#15" y="34.736"/><use xlink:href="#16" y="36.907"/><use xlink:href="#17" y="39.078"/></svg><svg x="880"><use xlink:href="#a"/><use xlink:href="#b" x="-.004" y="43.395"/><use xlink:href="#1"/><use xlink:href="#2" y="2.171"/><use xlink:href="#3" y="4.342"/><use xlink:href="#4" y="6.513"/><use xlink:href="#5" y="8.684"/><use xlink:href="#6" y="10.855"/><use xlink:href="#7" y="13.026"/><use xlink:href="#8" y="15.197"/><use xlink:href="#9" y="17.368"/><use xlink:href="#10" y="19.539"/><use xlink:href="#11" y="21.71"/><use xlink:href="#12" y="26.052"/><use xlink:href="#13" y="30.394"/><use xlink:href="#14" y="32.565"/><use xlink:href="#15" y="34.736"/><use xlink:href="#16" y="36.907"/><use xlink:href="#17" y="39.078"/></svg><svg x="960"><use xlink:href="#a"/><use xlink:href="#b" x="58.996" y="43.395"/><use xlink:href="#1"/><use xlink:href="#2" y="2.171"/><use xlink:href="#3" y="4.342"/><use xlink:href="#4" y="6.513"/><use xlink:href="#5" y="8.684"/><use xlink:href="#6" y="10.855"/><use xlink:href="#7" y="13.026"/><use xlink:href="#8" y="15.197"/><use xlink:href="#9" y="17.368"/><use xlink:href="#10" y="19.539"/><use xlink:href="#11" y="21.71"/><use xlink:href="#12" y="26.052"/><use xlink:href="#13" y="30.394"/><use xlink:href="#14" y="32.565"/><use xlink:href="#15" y="34.736"/><use xlink:href="#16" y="36.907"/><use xlink:href="#17" y="39.078"/><use xlink:href="#18" y="43.42"/></svg><svg x="1040"><use xlink:href="#a"/><use xlink:href="#b" x="58.996" y="43.395"/><use xlink:href="#1"/><use xlink:href="#2" y="2.171"/><use xlink:href="#3" y="4.342"/><use xlink:href="#4" y="6.513"/><use xlink:href="#5" y="8.684"/><use xlink:href="#6" y="10.855"/><use xlink:href="#7" y="13.026"/><use xlink:href="#8" y="15.197"/><use xlink:href="#9" y="17.368"/><use xlink:href="#10" y="19.539"/><use xlink:href="#11" y="21.71"/><use xlink:href="#12" y="26.052"/><use xlink:href="#13" y="30.394"/><use xlink:href="#14" y="32.565"/><use xlink:href="#15" y="34.736"/><use xlink:href="#16" y="36.907"/><use xlink:href="#17" y="39.078"/><path class="g" d="M0 43.42h13v2.171H0z"/><text y="45.09" class="h">trishantpahwa</text><text x="14.028" y="45.09" class="f">^_^</text><text x="18.036" y="45.09" class="f">|</text><text x="20.04" y="45.09" class="f">~/Desktop/ExpressJS-Route-Coverage</text><text x="55.11" y="45.09" class="f">|</text><text x="57.114" y="45.09" class="i">&gt;</text><text x="71.142" y="45.09" class="j">18:13:34</text></svg><svg x="1120"><use xlink:href="#a"/><use xlink:href="#b" x="59.996" y="43.395"/><use xlink:href="#1"/><use xlink:href="#2" y="2.171"/><use xlink:href="#3" y="4.342"/><use xlink:href="#4" y="6.513"/><use xlink:href="#5" y="8.684"/><use xlink:href="#6" y="10.855"/><use xlink:href="#7" y="13.026"/><use xlink:href="#8" y="15.197"/><use xlink:href="#9" y="17.368"/><use xlink:href="#10" y="19.539"/><use xlink:href="#11" y="21.71"/><use xlink:href="#12" y="26.052"/><use xlink:href="#13" y="30.394"/><use xlink:href="#14" y="32.565"/><use xlink:href="#15" y="34.736"/><use xlink:href="#16" y="36.907"/><use xlink:href="#17" y="39.078"/><path class="g" d="M0 43.42h13v2.171H0z"/><text y="45.09" class="h">trishantpahwa</text><text x="14.028" y="45.09" class="f">^_^</text><text x="18.036" y="45.09" class="f">|</text><text x="20.04" y="45.09" class="f">~/Desktop/ExpressJS-Route-Coverage</text><text x="55.11" y="45.09" class="f">|</text><text x="57.114" y="45.09" class="i">&gt;</text><text x="59.118" y="45.09" class="f">c</text><text x="71.142" y="45.09" class="j">18:13:34</text></svg><svg x="1200"><use xlink:href="#a"/><use xlink:href="#b" x="60.996" y="43.395"/><use xlink:href="#1"/><use xlink:href="#2" y="2.171"/><use xlink:href="#3" y="4.342"/><use xlink:href="#4" y="6.513"/><use xlink:href="#5" y="8.684"/><use xlink:href="#6" y="10.855"/><use xlink:href="#7" y="13.026"/><use xlink:href="#8" y="15.197"/><use xlink:href="#9" y="17.368"/><use xlink:href="#10" y="19.539"/><use xlink:href="#11" y="21.71"/><use xlink:href="#12" y="26.052"/><use xlink:href="#13" y="30.394"/><use xlink:href="#14" y="32.565"/><use xlink:href="#15" y="34.736"/><use xlink:href="#16" y="36.907"/><use xlink:href="#17" y="39.078"/><path class="g" d="M0 43.42h13v2.171H0z"/><text y="45.09" class="h">trishantpahwa</text><text x="14.028" y="45.09" class="f">^_^</text><text x="18.036" y="45.09" class="f">|</text><text x="20.04" y="45.09" class="f">~/Desktop/ExpressJS-Route-Coverage</text><text x="55.11" y="45.09" class="f">|</text><text x="57.114" y="45.09" class="i">&gt;</text><text x="59.118" y="45.09" class="f">cl</text><text x="71.142" y="45.09" class="j">18:13:34</text></svg><svg x="1280"><use xlink:href="#a"/><use xlink:href="#b" x="61.996" y="43.395"/><use xlink:href="#1"/><use xlink:href="#2" y="2.171"/><use xlink:href="#3" y="4.342"/><use xlink:href="#4" y="6.513"/><use xlink:href="#5" y="8.684"/><use xlink:href="#6" y="10.855"/><use xlink:href="#7" y="13.026"/><use xlink:href="#8" y="15.197"/><use xlink:href="#9" y="17.368"/><use xlink:href="#10" y="19.539"/><use xlink:href="#11" y="21.71"/><use xlink:href="#12" y="26.052"/><use xlink:href="#13" y="30.394"/><use xlink:href="#14" y="32.565"/><use xlink:href="#15" y="34.736"/><use xlink:href="#16" y="36.907"/><use xlink:href="#17" y="39.078"/><path class="g" d="M0 43.42h13v2.171H0z"/><text y="45.09" class="h">trishantpahwa</text><text x="14.028" y="45.09" class="f">^_^</text><text x="18.036" y="45.09" class="f">|</text><text x="20.04" y="45.09" class="f">~/Desktop/ExpressJS-Route-Coverage</text><text x="55.11" y="45.09" class="f">|</text><text x="57.114" y="45.09" class="i">&gt;</text><text x="59.118" y="45.09" class="f">cle</text><text x="71.142" y="45.09" class="j">18:13:34</text></svg><svg x="1360"><use xlink:href="#a"/><use xlink:href="#b" x="62.996" y="43.395"/><use xlink:href="#1"/><use xlink:href="#2" y="2.171"/><use xlink:href="#3" y="4.342"/><use xlink:href="#4" y="6.513"/><use xlink:href="#5" y="8.684"/><use xlink:href="#6" y="10.855"/><use xlink:href="#7" y="13.026"/><use xlink:href="#8" y="15.197"/><use xlink:href="#9" y="17.368"/><use xlink:href="#10" y="19.539"/><use xlink:href="#11" y="21.71"/><use xlink:href="#12" y="26.052"/><use xlink:href="#13" y="30.394"/><use xlink:href="#14" y="32.565"/><use xlink:href="#15" y="34.736"/><use xlink:href="#16" y="36.907"/><use xlink:href="#17" y="39.078"/><path class="g" d="M0 43.42h13v2.171H0z"/><text y="45.09" class="h">trishantpahwa</text><text x="14.028" y="45.09" class="f">^_^</text><text x="18.036" y="45.09" class="f">|</text><text x="20.04" y="45.09" class="f">~/Desktop/ExpressJS-Route-Coverage</text><text x="55.11" y="45.09" class="f">|</text><text x="57.114" y="45.09" class="i">&gt;</text><text x="59.118" y="45.09" class="f">clea</text><text x="71.142" y="45.09" class="j">18:13:34</text></svg><svg x="1440"><use xlink:href="#a"/><use xlink:href="#b" x="63.996" y="43.395"/><use xlink:href="#1"/><use xlink:href="#2" y="2.171"/><use xlink:href="#3" y="4.342"/><use xlink:href="#4" y="6.513"/><use xlink:href="#5" y="8.684"/><use xlink:href="#6" y="10.855"/><use xlink:href="#7" y="13.026"/><use xlink:href="#8" y="15.197"/><use xlink:href="#9" y="17.368"/><use xlink:href="#10" y="19.539"/><use xlink:href="#11" y="21.71"/><use xlink:href="#12" y="26.052"/><use xlink:href="#13" y="30.394"/><use xlink:href="#14" y="32.565"/><use xlink:href="#15" y="34.736"/><use xlink:href="#16" y="36.907"/><use xlink:href="#17" y="39.078"/><use xlink:href="#19" y="43.42"/></svg><svg x="1520"><use xlink:href="#a"/><use xlink:href="#b" x="-.004" y="45.566"/><use xlink:href="#1"/><use xlink:href="#2" y="2.171"/><use xlink:href="#3" y="4.342"/><use xlink:href="#4" y="6.513"/><use xlink:href="#5" y="8.684"/><use xlink:href="#6" y="10.855"/><use xlink:href="#7" y="13.026"/><use xlink:href="#8" y="15.197"/><use xlink:href="#9" y="17.368"/><use xlink:href="#10" y="19.539"/><use xlink:href="#11" y="21.71"/><use xlink:href="#12" y="26.052"/><use xlink:href="#13" y="30.394"/><use xlink:href="#14" y="32.565"/><use xlink:href="#15" y="34.736"/><use xlink:href="#16" y="36.907"/><use xlink:href="#17" y="39.078"/><use xlink:href="#19" y="43.42"/></svg><svg x="1600"><use xlink:href="#a"/><use xlink:href="#b" x="-.004"/></svg><svg x="1680"><use xlink:href="#a"/><use xlink:href="#b" x="-.004"/></svg><svg x="1760"><use xlink:href="#a"/><use xlink:href="#b" x="-.004"/></svg><svg x="1840"><use xlink:href="#a"/><use xlink:href="#b" x="58.996"/><use xlink:href="#18"/></svg><svg x="1920"><use xlink:href="#a"/><use xlink:href="#b" x="58.996"/><path class="g" d="M0 0h13v2.171H0z"/><text y="1.67" class="h">trishantpahwa</text><text x="14.028" y="1.67" class="f">^_^</text><text x="18.036" y="1.67" class="f">|</text><text x="20.04" y="1.67" class="f">~/Desktop/ExpressJS-Route-Coverage</text><text x="55.11" y="1.67" class="f">|</text><text x="57.114" y="1.67" class="i">&gt;</text><text x="71.142" y="1.67" class="j">18:13:35</text></svg><svg x="2000"><use xlink:href="#a"/><use xlink:href="#b" x="-.004" y="4.317"/><use xlink:href="#20"/><path class="k" d="M0 2.171h53v2.171H0z"/><text y="3.841" class="h">ple-app.js -v app -o print -j sample-app/package.json</text></svg><svg x="2080"><use xlink:href="#a"/><use xlink:href="#b" x="-.004" y="6.488"/><use xlink:href="#21"/><use xlink:href="#22" y="2.171"/></svg><svg x="2160"><use xlink:href="#a"/><use xlink:href="#b" x="-.004" y="8.659"/><use xlink:href="#21"/><use xlink:href="#22" y="2.171"/><use xlink:href="#23" y="6.513"/></svg><svg x="2240"><use xlink:href="#a"/><use xlink:href="#b" x="-.004" y="10.83"/><use xlink:href="#21"/><use xlink:href="#22" y="2.171"/><use xlink:href="#23" y="6.513"/><use xlink:href="#24" y="8.684"/></svg><svg x="2320"><use xlink:href="#a"/><use xlink:href="#b" x="-.004" y="13.001"/><use xlink:href="#21"/><use xlink:href="#22" y="2.171"/><use xlink:href="#23" y="6.513"/><use xlink:href="#24" y="8.684"/><use xlink:href="#25" y="10.855"/></svg><svg x="2400"><use xlink:href="#a"/><use xlink:href="#b" x="-.004" y="15.172"/><use xlink:href="#21"/><use xlink:href="#22" y="2.171"/><use xlink:href="#23" y="6.513"/><use xlink:href="#24" y="8.684"/><use xlink:href="#25" y="10.855"/><use xlink:href="#26" y="13.026"/></svg><svg x="2480"><use xlink:href="#a"/><use xlink:href="#b" x="-.004" y="19.514"/><use xlink:href="#21"/><use xlink:href="#22" y="2.171"/><use xlink:href="#23" y="6.513"/><use xlink:href="#24" y="8.684"/><use xlink:href="#25" y="10.855"/><use xlink:href="#26" y="13.026"/><use xlink:href="#27" y="15.197"/><use xlink:href="#28" y="17.368"/></svg><svg x="2560"><use xlink:href="#a"/><use xlink:href="#b" x="-.004" y="19.514"/><use xlink:href="#21"/><use xlink:href="#22" y="2.171"/><use xlink:href="#23" y="6.513"/><use xlink:href="#24" y="8.684"/><use xlink:href="#25" y="10.855"/><use xlink:href="#26" y="13.026"/><use xlink:href="#27" y="15.197"/><use xlink:href="#28" y="17.368"/></svg><svg x="2640"><use xlink:href="#a"/><use xlink:href="#b" x="-.004" y="19.514"/><use xlink:href="#21"/><use xlink:href="#22" y="2.171"/><use xlink:href="#23" y="6.513"/><use xlink:href="#24" y="8.684"/><use xlink:href="#25" y="10.855"/><use xlink:href="#26" y="13.026"/><use xlink:href="#27" y="15.197"/><use xlink:href="#28" y="17.368"/></svg><svg x="2720"><use xlink:href="#a"/><use xlink:href="#b" x="58.996" y="19.514"/><use xlink:href="#21"/><use xlink:href="#22" y="2.171"/><use xlink:href="#23" y="6.513"/><use xlink:href="#24" y="8.684"/><use xlink:href="#25" y="10.855"/><use xlink:href="#26" y="13.026"/><use xlink:href="#27" y="15.197"/><use xlink:href="#28" y="17.368"/><use xlink:href="#18" y="19.539"/></svg><svg x="2800"><use xlink:href="#a"/><use xlink:href="#b" x="58.996" y="19.514"/><use xlink:href="#21"/><use xlink:href="#22" y="2.171"/><use xlink:href="#23" y="6.513"/><use xlink:href="#24" y="8.684"/><use xlink:href="#25" y="10.855"/><use xlink:href="#26" y="13.026"/><use xlink:href="#27" y="15.197"/><use xlink:href="#28" y="17.368"/><path class="g" d="M0 19.539h13v2.171H0z"/><text y="21.209" class="h">trishantpahwa</text><text x="14.028" y="21.209" class="f">^_^</text><text x="18.036" y="21.209" class="f">|</text><text x="20.04" y="21.209" class="f">~/Desktop/ExpressJS-Route-Coverage</text><text x="55.11" y="21.209" class="f">|</text><text x="57.114" y="21.209" class="i">&gt;</text><text x="71.142" y="21.209" class="j">18:13:36</text></svg><svg x="2880"><use xlink:href="#a"/><use xlink:href="#b" x="-.004" y="26.027"/><use xlink:href="#21"/><use xlink:href="#22" y="2.171"/><use xlink:href="#23" y="6.513"/><use xlink:href="#24" y="8.684"/><use xlink:href="#25" y="10.855"/><use xlink:href="#26" y="13.026"/><use xlink:href="#27" y="15.197"/><use xlink:href="#28" y="17.368"/><use xlink:href="#20" y="19.539"/><path class="k" d="M0 21.71h80v2.171H0z"/><text y="23.38" class="h">ple-app.js -v app -o json -f sample-app/routes.json -j sample-app/package.json &amp;</text><path class="k" d="M0 23.881h28v2.171H0z"/><text y="25.551" class="h">&amp; cat sample-app/routes.json</text></svg><svg x="2960"><use xlink:href="#a"/><use xlink:href="#b" x="-.004" y="26.027"/><use xlink:href="#21"/><use xlink:href="#22" y="2.171"/><use xlink:href="#23" y="6.513"/><use xlink:href="#24" y="8.684"/><use xlink:href="#25" y="10.855"/><use xlink:href="#26" y="13.026"/><use xlink:href="#27" y="15.197"/><use xlink:href="#28" y="17.368"/><use xlink:href="#21" y="19.539"/><use xlink:href="#29" y="21.71"/><use xlink:href="#30" y="23.881"/></svg><svg x="3040"><use xlink:href="#a"/><use xlink:href="#b" x="-.004" y="28.198"/><use xlink:href="#21"/><use xlink:href="#22" y="2.171"/><use xlink:href="#23" y="6.513"/><use xlink:href="#24" y="8.684"/><use xlink:href="#25" y="10.855"/><use xlink:href="#26" y="13.026"/><use xlink:href="#27" y="15.197"/><use xlink:href="#28" y="17.368"/><use xlink:href="#21" y="19.539"/><use xlink:href="#29" y="21.71"/><use xlink:href="#30" y="23.881"/></svg><svg x="3120"><use xlink:href="#a"/><use xlink:href="#b" x=".996" y="47.737"/><use xlink:href="#21"/><use xlink:href="#22" y="2.171"/><use xlink:href="#23" y="6.513"/><use xlink:href="#24" y="8.684"/><use xlink:href="#25" y="10.855"/><use xlink:href="#26" y="13.026"/><use xlink:href="#27" y="15.197"/><use xlink:href="#28" y="17.368"/><use xlink:href="#21" y="19.539"/><use xlink:href="#29" y="21.71"/><use xlink:href="#30" y="23.881"/><use xlink:href="#31" y="28.223"/><use xlink:href="#32" y="30.394"/><use xlink:href="#33" y="32.565"/><use xlink:href="#34" y="34.736"/><use xlink:href="#35" y="36.907"/><use xlink:href="#36" y="39.078"/><use xlink:href="#37" y="41.249"/><use xlink:href="#38" y="43.42"/><use xlink:href="#39" y="45.591"/><text y="49.432" class="f">}</text></svg><svg x="3200"><use xlink:href="#a"/><use xlink:href="#b" x="-.004" y="49.908"/><use xlink:href="#21"/><use xlink:href="#22" y="2.171"/><use xlink:href="#23" y="6.513"/><use xlink:href="#24" y="8.684"/><use xlink:href="#25" y="10.855"/><use xlink:href="#26" y="13.026"/><use xlink:href="#27" y="15.197"/><use xlink:href="#28" y="17.368"/><use xlink:href="#21" y="19.539"/><use xlink:href="#29" y="21.71"/><use xlink:href="#30" y="23.881"/><use xlink:href="#31" y="28.223"/><use xlink:href="#32" y="30.394"/><use xlink:href="#33" y="32.565"/><use xlink:href="#34" y="34.736"/><use xlink:href="#35" y="36.907"/><use xlink:href="#36" y="39.078"/><use xlink:href="#37" y="41.249"/><use xlink:href="#38" y="43.42"/><use xlink:href="#39" y="45.591"/><use xlink:href="#40" y="47.762"/></svg><svg x="3280"><use xlink:href="#a"/><use xlink:href="#b" x="-.004" y="49.908"/><use xlink:href="#21"/><use xlink:href="#22" y="2.171"/><use xlink:href="#23" y="6.513"/><use xlink:href="#24" y="8.684"/><use xlink:href="#25" y="10.855"/><use xlink:href="#26" y="13.026"/><use xlink:href="#27" y="15.197"/><use xlink:href="#28" y="17.368"/><use xlink:href="#21" y="19.539"/><use xlink:href="#29" y="21.71"/><use xlink:href="#30" y="23.881"/><use xlink:href="#31" y="28.223"/><use xlink:href="#32" y="30.394"/><use xlink:href="#33" y="32.565"/><use xlink:href="#34" y="34.736"/><use xlink:href="#35" y="36.907"/><use xlink:href="#36" y="39.078"/><use xlink:href="#37" y="41.249"/><use xlink:href="#38" y="43.42"/><use xlink:href="#39" y="45.591"/><use xlink:href="#40" y="47.762"/></svg><svg x="3360"><use xlink:href="#a"/><use xlink:href="#b" x="58.996" y="49.908"/><use xlink:href="#21"/><use xlink:href="#22" y="2.171"/><use xlink:href="#23" y="6.513"/><use xlink:href="#24" y="8.684"/><use xlink:href="#25" y="10.855"/><use xlink:href="#26" y="13.026"/><use xlink:href="#27" y="15.197"/><use xlink:href="#28" y="17.368"/><use xlink:href="#21" y="19.539"/><use xlink:href="#29" y="21.71"/><use xlink:href="#30" y="23.881"/><use xlink:href="#31" y="28.223"/><use xlink:href="#32" y="30.394"/><use xlink:href="#33" y="32.565"/><use xlink:href="#34" y="34.736"/><use xlink:href="#35" y="36.907"/><use xlink:href="#36" y="39.078"/><use xlink:href="#37" y="41.249"/><use xlink:href="#38" y="43.42"/><use xlink:href="#39" y="45.591"/><use xlink:href="#40" y="47.762"/><use xlink:href="#18" y="49.933"/></svg><svg x="3440"><use xlink:href="#a"/><use xlink:href="#b" x="58.996" y="49.908"/><use xlink:href="#21"/><use xlink:href="#22" y="2.171"/><use xlink:href="#23" y="6.513"/><use xlink:href="#24" y="8.684"/><use xlink:href="#25" y="10.855"/><use xlink:href="#26" y="13.026"/><use xlink:href="#27" y="15.197"/><use xlink:href="#28" y="17.368"/><use xlink:href="#21" y="19.539"/><use xlink:href="#29" y="21.71"/><use xlink:href="#30" y="23.881"/><use xlink:href="#31" y="28.223"/><use xlink:href="#32" y="30.394"/><use xlink:href="#33" y="32.565"/><use xlink:href="#34" y="34.736"/><use xlink:href="#35" y="36.907"/><use xlink:href="#36" y="39.078"/><use xlink:href="#37" y="41.249"/><use xlink:href="#38" y="43.42"/><use xlink:href="#39" y="45.591"/><use xlink:href="#40" y="47.762"/><path class="g" d="M0 49.933h13v2.171H0z"/><text y="51.603" class="h">trishantpahwa</text><text x="14.028" y="51.603" class="f">^_^</text><text x="18.036" y="51.603" class="f">|</text><text x="20.04" y="51.603" class="f">~/Desktop/ExpressJS-Route-Coverage</text><text x="55.11" y="51.603" class="f">|</text><text x="57.114" y="51.603" class="i">&gt;</text><text x="71.142" y="51.603" class="j">18:13:40</text></svg><svg x="3520"><use xlink:href="#a"/><use xlink:href="#b" x="59.996" y="49.908"/><use xlink:href="#21"/><use xlink:href="#22" y="2.171"/><use xlink:href="#23" y="6.513"/><use xlink:href="#24" y="8.684"/><use xlink:href="#25" y="10.855"/><use xlink:href="#26" y="13.026"/><use xlink:href="#27" y="15.197"/><use xlink:href="#28" y="17.368"/><use xlink:href="#21" y="19.539"/><use xlink:href="#29" y="21.71"/><use xlink:href="#30" y="23.881"/><use xlink:href="#31" y="28.223"/><use xlink:href="#32" y="30.394"/><use xlink:href="#33" y="32.565"/><use xlink:href="#34" y="34.736"/><use xlink:href="#35" y="36.907"/><use xlink:href="#36" y="39.078"/><use xlink:href="#37" y="41.249"/><use xlink:href="#38" y="43.42"/><use xlink:href="#39" y="45.591"/><use xlink:href="#40" y="47.762"/><path class="g" d="M0 49.933h13v2.171H0z"/><text y="51.603" class="h">trishantpahwa</text><text x="14.028" y="51.603" class="f">^_^</text><text x="18.036" y="51.603" class="f">|</text><text x="20.04" y="51.603" class="f">~/Desktop/ExpressJS-Route-Coverage</text><text x="55.11" y="51.603" class="f">|</text><text x="57.114" y="51.603" class="i">&gt;</text><text x="59.118" y="51.603" class="f">e</text><text x="71.142" y="51.603" class="j">18:13:40</text></svg><svg x="3600"><use xlink:href="#a"/><use xlink:href="#b" x="60.996" y="49.908"/><use xlink:href="#21"/><use xlink:href="#22" y="2.171"/><use xlink:href="#23" y="6.513"/><use xlink:href="#24" y="8.684"/><use xlink:href="#25" y="10.855"/><use xlink:href="#26" y="13.026"/><use xlink:href="#27" y="15.197"/><use xlink:href="#28" y="17.368"/><use xlink:href="#21" y="19.539"/><use xlink:href="#29" y="21.71"/><use xlink:href="#30" y="23.881"/><use xlink:href="#31" y="28.223"/><use xlink:href="#32" y="30.394"/><use xlink:href="#33" y="32.565"/><use xlink:href="#34" y="34.736"/><use xlink:href="#35" y="36.907"/><use xlink:href="#36" y="39.078"/><use xlink:href="#37" y="41.249"/><use xlink:href="#38" y="43.42"/><use xlink:href="#39" y="45.591"/><use xlink:href="#40" y="47.762"/><path class="g" d="M0 49.933h13v2.171H0z"/><text y="51.603" class="h">trishantpahwa</text><text x="14.028" y="51.603" class="f">^_^</text><text x="18.036" y="51.603" class="f">|</text><text x="20.04" y="51.603" class="f">~/Desktop/ExpressJS-Route-Coverage</text><text x="55.11" y="51.603" class="f">|</text><text x="57.114" y="51.603" class="i">&gt;</text><text x="59.118" y="51.603" class="f">ex</text><text x="71.142" y="51.603" class="j">18:13:40</text></svg><svg x="3680"><use xlink:href="#a"/><use xlink:href="#b" x="61.996" y="49.908"/><use xlink:href="#21"/><use xlink:href="#22" y="2.171"/><use xlink:href="#23" y="6.513"/><use xlink:href="#24" y="8.684"/><use xlink:href="#25" y="10.855"/><use xlink:href="#26" y="13.026"/><use xlink:href="#27" y="15.197"/><use xlink:href="#28" y="17.368"/><use xlink:href="#21" y="19.539"/><use xlink:href="#29" y="21.71"/><use xlink:href="#30" y="23.881"/><use xlink:href="#31" y="28.223"/><use xlink:href="#32" y="30.394"/><use xlink:href="#33" y="32.565"/><use xlink:href="#34" y="34.736"/><use xlink:href="#35" y="36.907"/><use xlink:href="#36" y="39.078"/><use xlink:href="#37" y="41.249"/><use xlink:href="#38" y="43.42"/><use xlink:href="#39" y="45.591"/><use xlink:href="#40" y="47.762"/><path class="g" d="M0 49.933h13v2.171H0z"/><text y="51.603" class="h">trishantpahwa</text><text x="14.028" y="51.603" class="f">^_^</text><text x="18.036" y="51.603" class="f">|</text><text x="20.04" y="51.603" class="f">~/Desktop/ExpressJS-Route-Coverage</text><text x="55.11" y="51.603" class="f">|</text><text x="57.114" y="51.603" class="i">&gt;</text><text x="59.118" y="51.603" class="f">exi</text><text x="71.142" y="51.603" class="j">18:13:40</text></svg><svg x="3760"><use xlink:href="#a"/><use xlink:href="#b" x="62.996" y="49.908"/><use xlink:href="#21"/><use xlink:href="#22" y="2.171"/><use xlink:href="#23" y="6.513"/><use xlink:href="#24" y="8.684"/><use xlink:href="#25" y="10.855"/><use xlink:href="#26" y="13.026"/><use xlink:href="#27" y="15.197"/><use xlink:href="#28" y="17.368"/><use xlink:href="#21" y="19.539"/><use xlink:href="#29" y="21.71"/><use xlink:href="#30" y="23.881"/><use xlink:href="#31" y="28.223"/><use xlink:href="#32" y="30.394"/><use xlink:href="#33" y="32.565"/><use xlink:href="#34" y="34.736"/><use xlink:href="#35" y="36.907"/><use xlink:href="#36" y="39.078"/><use xlink:href="#37" y="41.249"/><use xlink:href="#38" y="43.42"/><use xlink:href="#39" y="45.591"/><use xlink:href="#40" y="47.762"/><use xlink:href="#41" y="49.933"/></svg><svg x="3840"><use xlink:href="#a"/><use xlink:href="#b" x="-.004" y="49.908"/><use xlink:href="#22"/><use xlink:href="#23" y="4.342"/><use xlink:href="#24" y="6.513"/><use xlink:href="#25" y="8.684"/><use xlink:href="#26" y="10.855"/><use xlink:href="#27" y="13.026"/><use xlink:href="#28" y="15.197"/><use xlink:href="#21" y="17.368"/><use xlink:href="#29" y="19.539"/><use xlink:href="#30" y="21.71"/><use xlink:href="#31" y="26.052"/><use xlink:href="#32" y="28.223"/><use xlink:href="#33" y="30.394"/><use xlink:href="#34" y="32.565"/><use xlink:href="#35" y="34.736"/><use xlink:href="#36" y="36.907"/><use xlink:href="#37" y="39.078"/><use xlink:href="#38" y="41.249"/><use xlink:href="#39" y="43.42"/><use xlink:href="#40" y="45.591"/><use xlink:href="#41" y="47.762"/></svg><svg x="3920"><use xlink:href="#a"/><use xlink:href="#b" x="16.996" y="49.908"/><use xlink:href="#23" y="2.171"/><use xlink:href="#24" y="4.342"/><use xlink:href="#25" y="6.513"/><use xlink:href="#26" y="8.684"/><use xlink:href="#27" y="10.855"/><use xlink:href="#28" y="13.026"/><use xlink:href="#21" y="15.197"/><use xlink:href="#29" y="17.368"/><use xlink:href="#30" y="19.539"/><use xlink:href="#31" y="23.881"/><use xlink:href="#32" y="26.052"/><use xlink:href="#33" y="28.223"/><use xlink:href="#34" y="30.394"/><use xlink:href="#35" y="32.565"/><use xlink:href="#36" y="34.736"/><use xlink:href="#37" y="36.907"/><use xlink:href="#38" y="39.078"/><use xlink:href="#39" y="41.249"/><use xlink:href="#40" y="43.42"/><use xlink:href="#41" y="45.591"/><use xlink:href="#42" y="49.933"/></svg><svg x="4000"><use xlink:href="#a"/><use xlink:href="#b" x="19.996" y="49.908"/><use xlink:href="#23"/><use xlink:href="#24" y="2.171"/><use xlink:href="#25" y="4.342"/><use xlink:href="#26" y="6.513"/><use xlink:href="#27" y="8.684"/><use xlink:href="#28" y="10.855"/><use xlink:href="#21" y="13.026"/><use xlink:href="#29" y="15.197"/><use xlink:href="#30" y="17.368"/><use xlink:href="#31" y="21.71"/><use xlink:href="#32" y="23.881"/><use xlink:href="#33" y="26.052"/><use xlink:href="#34" y="28.223"/><use xlink:href="#35" y="30.394"/><use xlink:href="#36" y="32.565"/><use xlink:href="#37" y="34.736"/><use xlink:href="#38" y="36.907"/><use xlink:href="#39" y="39.078"/><use xlink:href="#40" y="41.249"/><use xlink:href="#41" y="43.42"/><use xlink:href="#42" y="47.762"/><text y="51.603" class="f">...saving</text><text x="10.02" y="51.603" class="f">history...</text></svg><svg x="4080"><use xlink:href="#a"/><use xlink:href="#b" x="46.996" y="49.908"/><use xlink:href="#23"/><use xlink:href="#24" y="2.171"/><use xlink:href="#25" y="4.342"/><use xlink:href="#26" y="6.513"/><use xlink:href="#27" y="8.684"/><use xlink:href="#28" y="10.855"/><use xlink:href="#21" y="13.026"/><use xlink:href="#29" y="15.197"/><use xlink:href="#30" y="17.368"/><use xlink:href="#31" y="21.71"/><use xlink:href="#32" y="23.881"/><use xlink:href="#33" y="26.052"/><use xlink:href="#34" y="28.223"/><use xlink:href="#35" y="30.394"/><use xlink:href="#36" y="32.565"/><use xlink:href="#37" y="34.736"/><use xlink:href="#38" y="36.907"/><use xlink:href="#39" y="39.078"/><use xlink:href="#40" y="41.249"/><use xlink:href="#41" y="43.42"/><use xlink:href="#42" y="47.762"/><use xlink:href="#43" y="49.933"/></svg><svg x="4160"><use xlink:href="#a"/><use xlink:href="#b" x="2.996" y="49.908"/><use xlink:href="#24"/><use xlink:href="#25" y="2.171"/><use xlink:href="#26" y="4.342"/><use xlink:href="#27" y="6.513"/><use xlink:href="#28" y="8.684"/><use xlink:href="#21" y="10.855"/><use xlink:href="#29" y="13.026"/><use xlink:href="#30" y="15.197"/><use xlink:href="#31" y="19.539"/><use xlink:href="#32" y="21.71"/><use xlink:href="#33" y="23.881"/><use xlink:href="#34" y="26.052"/><use xlink:href="#35" y="28.223"/><use xlink:href="#36" y="30.394"/><use xlink:href="#37" y="32.565"/><use xlink:href="#38" y="34.736"/><use xlink:href="#39" y="36.907"/><use xlink:href="#40" y="39.078"/><use xlink:href="#41" y="41.249"/><use xlink:href="#42" y="45.591"/><use xlink:href="#43" y="47.762"/><text y="51.603" class="f">...</text></svg><svg x="4240"><use xlink:href="#a"/><use xlink:href="#b" x="-.004" y="49.908"/><use xlink:href="#25"/><use xlink:href="#26" y="2.171"/><use xlink:href="#27" y="4.342"/><use xlink:href="#28" y="6.513"/><use xlink:href="#21" y="8.684"/><use xlink:href="#29" y="10.855"/><use xlink:href="#30" y="13.026"/><use xlink:href="#31" y="17.368"/><use xlink:href="#32" y="19.539"/><use xlink:href="#33" y="21.71"/><use xlink:href="#34" y="23.881"/><use xlink:href="#35" y="26.052"/><use xlink:href="#36" y="28.223"/><use xlink:href="#37" y="30.394"/><use xlink:href="#38" y="32.565"/><use xlink:href="#39" y="34.736"/><use xlink:href="#40" y="36.907"/><use xlink:href="#41" y="39.078"/><use xlink:href="#42" y="43.42"/><use xlink:href="#43" y="45.591"/><text y="49.432" class="f">...completed.</text></svg></svg></g></g></svg></svg>